<svg
  width="48pt"
  height="48pt"
  version="1.1"
  viewBox="0 0 1200 1200"
  xmlns="http://www.w3.org/2000/svg"
>
  <g fill="#ff8500">
    <path
      d="m600 0c-330.96 0-600 269.04-600 600s269.04 600 600 600 600-269.04 600-600-269.04-600-600-600zm37.922 1123v-92.398c40.801-19.68 99.602-55.199 99.602-95.762 0-61.922-61.441-27.359-137.52-27.359-75.84 0-137.52-34.32-137.52 27.359 0 40.559 59.039 76.078 99.602 95.762v92.398c-227.76-16.32-415.92-178.8-470.4-394.08 13.922 4.8008 29.039 7.6797 44.641 7.6797 75.121 0 136.32-61.199 136.32-136.32l-0.007813-0.24219c-0.96094-91.922 41.52-269.04 107.52-326.64 15.84-13.68 17.281-37.68 3.6016-53.281-13.68-15.84-37.68-17.281-53.281-3.6016-87.359 76.078-134.4 274.8-133.44 383.52v0.48047c0 33.602-27.359 60.719-60.719 60.719-33.359 0.003907-60.719-27.594-60.719-61.195 0-289.2 235.2-524.4 524.4-524.4s524.4 235.2 524.4 524.4c0 33.602-27.359 60.719-60.719 60.719-33.602 0-60.719-27.359-60.719-60.719 0.96094-108.72-46.078-307.68-133.68-383.76-15.84-13.68-39.602-12-53.281 3.6016-13.68 15.84-12 39.602 3.6016 53.281 66 57.602 108.48 234.72 107.52 326.64v0.23828 0.23828c0 75.121 61.199 136.32 136.32 136.32 15.602 0 30.719-2.6406 44.641-7.6797-54.242 215.28-242.4 377.76-470.16 394.08z"
    />
    <path
      d="m402.24 580.56c-14.16 0-27.602 5.7617-38.879 15.602 2.3984-0.48047 4.8008-0.71875 7.4414-0.71875 18.961 0 34.32 15.359 34.32 34.32 0 18.961-15.359 34.32-34.32 34.32-17.281 0-31.441-12.719-33.84-29.281-7.1992 17.281-11.281 37.441-11.281 59.281 0 62.641 34.32 113.52 76.801 113.52s76.801-50.879 76.801-113.52c-0.24219-62.641-34.562-113.52-77.043-113.52z"
    />
    <path
      d="m797.76 580.56c-14.16 0-27.602 5.7617-38.879 15.602 2.3984-0.48047 4.8008-0.71875 7.4414-0.71875 18.961 0 34.32 15.359 34.32 34.32 0 18.961-15.359 34.32-34.32 34.32-17.281 0-31.441-12.719-33.84-29.281-7.1992 17.281-11.281 37.441-11.281 59.281 0 62.641 34.32 113.52 76.801 113.52 42.48 0 76.801-50.879 76.801-113.52-0.24609-62.641-34.566-113.52-77.043-113.52z"
    />
  </g>
</svg>